<svg version="1.1" id="Layer_1" xmlns="http://www.w3.org/2000/svg" xmlns:xlink="http://www.w3.org/1999/xlink" x="0px" y="0px"
	 width="100%" viewBox="0 0 500 500" enable-background="new 0 0 500 500" xml:space="preserve">
<path fill="#000000" opacity="1.000000" stroke="none" 
	d="
M1.000000,246.000000 
	C1.000000,164.020355 1.000000,82.540695 1.000000,1.030524 
	C167.604706,1.030524 334.209412,1.030524 500.907043,1.030524 
	C500.907043,167.563049 500.907043,334.126160 500.907043,500.844635 
	C334.333435,500.844635 167.666733,500.844635 1.000000,500.844635 
	C1.000000,416.123810 1.000000,331.311890 1.000000,246.000000 
M220.500000,479.000000 
	C260.163239,479.000000 299.826782,479.082855 339.489563,478.946991 
	C350.676544,478.908661 356.350922,474.872498 358.872345,464.145111 
	C359.725189,460.516693 359.499695,456.649170 360.060394,452.935211 
	C362.311462,438.024445 364.701813,423.134705 366.992401,408.229797 
	C368.471771,398.603607 369.843689,388.960968 371.306396,379.332153 
	C373.181915,366.985962 375.097321,354.645813 377.001068,342.303894 
	C378.212616,334.449341 379.459625,326.600220 380.644836,318.741699 
	C382.121246,308.952301 383.574799,299.159302 384.993225,289.361328 
	C386.436279,279.392914 387.721741,269.400604 389.261780,259.447510 
	C391.417480,245.515335 393.779694,231.615219 395.988892,217.691147 
	C398.021729,204.879013 400.115875,192.073334 401.868378,179.221878 
	C402.422882,175.155212 403.001892,170.615967 401.793427,166.865311 
	C395.849426,148.417221 389.328949,130.154358 382.963776,111.842873 
	C381.171143,106.685745 375.554504,103.591263 370.922638,105.050354 
	C367.212952,106.218941 364.597290,113.172623 366.289978,117.764084 
	C370.055206,127.977219 374.009583,138.121490 377.689667,148.364700 
	C379.224457,152.636627 380.256836,157.089035 381.673401,161.999176 
	C369.101166,161.999176 357.622162,162.060410 346.146393,161.897171 
	C345.088928,161.882141 343.474762,160.652542 343.089569,159.623642 
	C332.982391,132.623840 322.994598,105.579323 313.006439,78.535027 
	C308.309784,65.818184 303.654846,53.085945 298.848633,40.000275 
	C311.634583,40.000275 323.958282,39.932392 336.278473,40.107475 
	C337.482880,40.124588 339.238983,41.378815 339.748749,42.506462 
	C341.126282,45.553844 341.898712,48.868263 343.037476,52.031277 
	C346.996033,63.026649 350.887726,74.048729 355.056824,84.964424 
	C356.817352,89.573883 361.252930,91.585312 365.315765,90.256042 
	C370.807831,88.459175 372.525787,84.372185 370.222717,77.714905 
	C365.405579,63.790562 360.447144,49.915009 355.529907,36.025379 
	C352.169525,26.533369 346.638794,23.116081 337.711884,23.089056 
	C280.214447,22.914988 222.715256,22.832392 165.219406,23.179991 
	C156.549454,23.232409 150.363174,24.789555 146.568817,36.833679 
	C145.318710,40.801781 143.576981,44.612213 142.164932,48.532516 
	C129.788849,82.892349 117.341049,117.226898 105.140282,151.648972 
	C101.842773,160.952255 97.683250,170.011749 99.864090,180.635422 
	C102.794846,194.912216 104.818436,209.383682 106.958862,223.812027 
	C109.462349,240.687775 111.604759,257.616760 114.029869,274.504547 
	C116.267273,290.085205 118.638901,305.646881 121.025536,321.205566 
	C121.611710,325.026917 122.186356,328.895752 123.311172,332.576233 
	C124.503365,336.477203 128.147049,338.166992 131.681686,337.782867 
	C135.004730,337.421783 139.060593,336.194183 138.954727,331.425507 
	C138.864655,327.367584 138.502884,323.297516 137.972595,319.270844 
	C136.041595,304.608582 134.133575,289.940735 131.945007,275.315674 
	C129.449921,258.642395 126.604469,242.021835 124.021919,225.361221 
	C121.611008,209.807922 119.288010,194.240295 117.068863,178.658661 
	C116.677437,175.910202 116.229614,172.800659 117.092262,170.301178 
	C123.885956,150.616669 130.996338,131.041489 138.000549,111.429573 
	C146.495590,87.643250 154.982162,63.853901 163.450424,40.127464 
	C202.668121,40.127464 241.645706,40.127464 280.683960,40.127464 
	C282.269196,44.761047 283.713104,49.339642 285.391663,53.830528 
	C297.223053,85.484848 309.400055,117.014626 320.794495,148.824951 
	C324.442719,159.009888 330.900635,168.619293 328.164459,180.672852 
	C325.942291,190.461945 325.232452,200.589935 323.749756,210.552429 
	C321.887573,223.064880 319.881226,235.555878 318.012726,248.067413 
	C316.549225,257.867157 315.262512,267.693390 313.784332,277.490784 
	C312.260742,287.589722 310.581848,297.665131 309.005280,307.756195 
	C307.354889,318.319794 305.803497,328.899292 304.084595,339.451599 
	C303.527405,342.872009 306.658752,348.200775 309.999908,348.976501 
	C314.781067,350.086487 320.344086,347.269196 320.977631,343.263519 
	C323.358246,328.212769 325.764160,313.164886 327.969360,298.087921 
	C330.109650,283.454895 331.909180,268.771973 334.056122,254.140015 
	C335.891602,241.630524 338.081238,229.173370 339.978394,216.672440 
	C341.872650,204.190613 343.598114,191.683167 345.385620,179.270142 
	C358.353485,179.270142 371.115356,179.270142 384.301178,179.270142 
	C370.184448,273.718109 356.116547,367.839142 342.091492,461.673584 
	C328.894073,461.673584 316.478027,461.673584 303.895172,461.673584 
	C304.030121,459.362427 303.999573,457.364441 304.285400,455.412811 
	C305.813416,444.979065 307.422424,434.557220 308.999390,424.130646 
	C310.164185,416.429291 311.318604,408.726379 312.485382,401.025330 
	C313.651886,393.325989 315.118286,385.655975 315.861572,377.916290 
	C316.172882,374.674805 315.539642,371.048401 314.296082,368.024597 
	C312.657410,364.040070 308.086548,363.998474 305.278992,365.305634 
	C302.626068,366.540741 299.863861,369.963898 299.307678,372.841675 
	C297.367035,382.882843 296.434265,393.115234 294.976044,403.254456 
	C293.868530,410.955170 292.487762,418.616211 291.330963,426.310303 
	C289.834076,436.266296 288.127899,446.207062 287.145935,456.216614 
	C286.725128,460.505829 285.705414,462.115082 281.123779,462.095490 
	C242.125870,461.928589 203.126968,462.000000 164.128357,462.000000 
	C162.503555,462.000000 160.878769,462.000000 159.255615,462.000000 
	C157.767029,450.934052 156.447266,440.294037 154.880417,429.690552 
	C153.031921,417.181061 150.969879,404.703156 149.000015,392.211609 
	C147.334915,381.652618 145.454468,371.121246 144.096069,360.522949 
	C143.434601,355.362335 139.992874,353.419525 135.961197,353.198547 
	C131.888992,352.975372 128.137299,355.219086 128.073715,359.999268 
	C128.002182,365.376465 128.322021,370.816437 129.103531,376.136292 
	C131.223373,390.566681 133.802933,404.929169 135.963928,419.353973 
	C138.130371,433.815247 139.855881,448.343781 142.134262,462.786133 
	C142.660339,466.120819 144.179550,469.539276 146.068420,472.366943 
	C149.652939,477.733032 155.492783,478.943420 161.502213,478.969177 
	C180.834488,479.052002 200.167358,479.000000 220.500000,479.000000 
M148.112091,146.989731 
	C147.741409,149.266159 147.109528,151.536682 147.058044,153.820312 
	C146.969223,157.761368 150.149338,160.978653 154.037323,160.981155 
	C199.683838,161.010452 245.330582,161.047195 290.976227,160.847488 
	C293.055084,160.838394 295.416504,158.918930 297.131744,157.332779 
	C299.964355,154.713348 299.226532,151.204391 297.641266,148.380737 
	C295.747040,145.006760 292.219818,143.990601 288.412170,143.991730 
	C244.431564,144.004715 200.450806,143.956497 156.470749,144.112564 
	C153.940781,144.121536 151.416565,145.756424 148.112091,146.989731 
M194.501770,189.000000 
	C189.504837,189.000137 184.503693,188.872284 179.512161,189.036453 
	C174.525070,189.200485 171.019699,194.249969 172.422241,198.940720 
	C173.903122,203.893356 176.798233,205.973297 182.595535,205.986557 
	C199.251862,206.024673 215.908325,206.000000 232.564743,206.000000 
	C242.725159,206.000000 252.886520,206.083679 263.045624,205.968079 
	C268.999603,205.900345 273.042328,202.066254 272.999878,196.914993 
	C272.956146,191.606812 269.656464,189.001389 262.959503,189.000778 
	C240.473343,188.998749 217.987198,189.000000 194.501770,189.000000 
M251.204681,249.225266 
	C255.931534,246.329483 256.100250,241.448547 254.565094,237.424911 
	C253.107880,233.605530 248.811844,232.500763 244.487839,232.953323 
	C242.021011,233.211502 239.505020,233.000000 237.011169,233.000000 
	C224.375687,233.000015 211.739685,232.932663 199.104919,233.028381 
	C192.768417,233.076385 189.890015,236.005157 190.000015,241.836121 
	C190.102463,247.265350 193.172348,250.003174 199.265808,249.993698 
	C216.387207,249.967056 233.508545,249.910599 251.204681,249.225266 
z"/>
<path fill="#FFFFFF" opacity="1.000000" stroke="none" 
	d="
M220.000000,479.000000 
	C200.167358,479.000000 180.834488,479.052002 161.502213,478.969177 
	C155.492783,478.943420 149.652939,477.733032 146.068420,472.366943 
	C144.179550,469.539276 142.660339,466.120819 142.134262,462.786133 
	C139.855881,448.343781 138.130371,433.815247 135.963928,419.353973 
	C133.802933,404.929169 131.223373,390.566681 129.103531,376.136292 
	C128.322021,370.816437 128.002182,365.376465 128.073715,359.999268 
	C128.137299,355.219086 131.888992,352.975372 135.961197,353.198547 
	C139.992874,353.419525 143.434601,355.362335 144.096069,360.522949 
	C145.454468,371.121246 147.334915,381.652618 149.000015,392.211609 
	C150.969879,404.703156 153.031921,417.181061 154.880417,429.690552 
	C156.447266,440.294037 157.767029,450.934052 159.255615,462.000000 
	C160.878769,462.000000 162.503555,462.000000 164.128357,462.000000 
	C203.126968,462.000000 242.125870,461.928589 281.123779,462.095490 
	C285.705414,462.115082 286.725128,460.505829 287.145935,456.216614 
	C288.127899,446.207062 289.834076,436.266296 291.330963,426.310303 
	C292.487762,418.616211 293.868530,410.955170 294.976044,403.254456 
	C296.434265,393.115234 297.367035,382.882843 299.307678,372.841675 
	C299.863861,369.963898 302.626068,366.540741 305.278992,365.305634 
	C308.086548,363.998474 312.657410,364.040070 314.296082,368.024597 
	C315.539642,371.048401 316.172882,374.674805 315.861572,377.916290 
	C315.118286,385.655975 313.651886,393.325989 312.485382,401.025330 
	C311.318604,408.726379 310.164185,416.429291 308.999390,424.130646 
	C307.422424,434.557220 305.813416,444.979065 304.285400,455.412811 
	C303.999573,457.364441 304.030121,459.362427 303.895172,461.673584 
	C316.478027,461.673584 328.894073,461.673584 342.091492,461.673584 
	C356.116547,367.839142 370.184448,273.718109 384.301178,179.270142 
	C371.115356,179.270142 358.353485,179.270142 345.385620,179.270142 
	C343.598114,191.683167 341.872650,204.190613 339.978394,216.672440 
	C338.081238,229.173370 335.891602,241.630524 334.056122,254.140015 
	C331.909180,268.771973 330.109650,283.454895 327.969360,298.087921 
	C325.764160,313.164886 323.358246,328.212769 320.977631,343.263519 
	C320.344086,347.269196 314.781067,350.086487 309.999908,348.976501 
	C306.658752,348.200775 303.527405,342.872009 304.084595,339.451599 
	C305.803497,328.899292 307.354889,318.319794 309.005280,307.756195 
	C310.581848,297.665131 312.260742,287.589722 313.784332,277.490784 
	C315.262512,267.693390 316.549225,257.867157 318.012726,248.067413 
	C319.881226,235.555878 321.887573,223.064880 323.749756,210.552429 
	C325.232452,200.589935 325.942291,190.461945 328.164459,180.672852 
	C330.900635,168.619293 324.442719,159.009888 320.794495,148.824951 
	C309.400055,117.014626 297.223053,85.484848 285.391663,53.830528 
	C283.713104,49.339642 282.269196,44.761047 280.683960,40.127464 
	C241.645706,40.127464 202.668121,40.127464 163.450424,40.127464 
	C154.982162,63.853901 146.495590,87.643250 138.000549,111.429573 
	C130.996338,131.041489 123.885956,150.616669 117.092262,170.301178 
	C116.229614,172.800659 116.677437,175.910202 117.068863,178.658661 
	C119.288010,194.240295 121.611008,209.807922 124.021919,225.361221 
	C126.604469,242.021835 129.449921,258.642395 131.945007,275.315674 
	C134.133575,289.940735 136.041595,304.608582 137.972595,319.270844 
	C138.502884,323.297516 138.864655,327.367584 138.954727,331.425507 
	C139.060593,336.194183 135.004730,337.421783 131.681686,337.782867 
	C128.147049,338.166992 124.503365,336.477203 123.311172,332.576233 
	C122.186356,328.895752 121.611710,325.026917 121.025536,321.205566 
	C118.638901,305.646881 116.267273,290.085205 114.029869,274.504547 
	C111.604759,257.616760 109.462349,240.687775 106.958862,223.812027 
	C104.818436,209.383682 102.794846,194.912216 99.864090,180.635422 
	C97.683250,170.011749 101.842773,160.952255 105.140282,151.648972 
	C117.341049,117.226898 129.788849,82.892349 142.164932,48.532516 
	C143.576981,44.612213 145.318710,40.801781 146.568817,36.833679 
	C150.363174,24.789555 156.549454,23.232409 165.219406,23.179991 
	C222.715256,22.832392 280.214447,22.914988 337.711884,23.089056 
	C346.638794,23.116081 352.169525,26.533369 355.529907,36.025379 
	C360.447144,49.915009 365.405579,63.790562 370.222717,77.714905 
	C372.525787,84.372185 370.807831,88.459175 365.315765,90.256042 
	C361.252930,91.585312 356.817352,89.573883 355.056824,84.964424 
	C350.887726,74.048729 346.996033,63.026649 343.037476,52.031277 
	C341.898712,48.868263 341.126282,45.553844 339.748749,42.506462 
	C339.238983,41.378815 337.482880,40.124588 336.278473,40.107475 
	C323.958282,39.932392 311.634583,40.000275 298.848633,40.000275 
	C303.654846,53.085945 308.309784,65.818184 313.006439,78.535027 
	C322.994598,105.579323 332.982391,132.623840 343.089569,159.623642 
	C343.474762,160.652542 345.088928,161.882141 346.146393,161.897171 
	C357.622162,162.060410 369.101166,161.999176 381.673401,161.999176 
	C380.256836,157.089035 379.224457,152.636627 377.689667,148.364700 
	C374.009583,138.121490 370.055206,127.977219 366.289978,117.764084 
	C364.597290,113.172623 367.212952,106.218941 370.922638,105.050354 
	C375.554504,103.591263 381.171143,106.685745 382.963776,111.842873 
	C389.328949,130.154358 395.849426,148.417221 401.793427,166.865311 
	C403.001892,170.615967 402.422882,175.155212 401.868378,179.221878 
	C400.115875,192.073334 398.021729,204.879013 395.988892,217.691147 
	C393.779694,231.615219 391.417480,245.515335 389.261780,259.447510 
	C387.721741,269.400604 386.436279,279.392914 384.993225,289.361328 
	C383.574799,299.159302 382.121246,308.952301 380.644836,318.741699 
	C379.459625,326.600220 378.212616,334.449341 377.001068,342.303894 
	C375.097321,354.645813 373.181915,366.985962 371.306396,379.332153 
	C369.843689,388.960968 368.471771,398.603607 366.992401,408.229797 
	C364.701813,423.134705 362.311462,438.024445 360.060394,452.935211 
	C359.499695,456.649170 359.725189,460.516693 358.872345,464.145111 
	C356.350922,474.872498 350.676544,478.908661 339.489563,478.946991 
	C299.826782,479.082855 260.163239,479.000000 220.000000,479.000000 
z"/>
<path fill="#FFFFFF" opacity="1.000000" stroke="none" 
	d="
M148.500885,146.812164 
	C151.416565,145.756424 153.940781,144.121536 156.470749,144.112564 
	C200.450806,143.956497 244.431564,144.004715 288.412170,143.991730 
	C292.219818,143.990601 295.747040,145.006760 297.641266,148.380737 
	C299.226532,151.204391 299.964355,154.713348 297.131744,157.332779 
	C295.416504,158.918930 293.055084,160.838394 290.976227,160.847488 
	C245.330582,161.047195 199.683838,161.010452 154.037323,160.981155 
	C150.149338,160.978653 146.969223,157.761368 147.058044,153.820312 
	C147.109528,151.536682 147.741409,149.266159 148.500885,146.812164 
z"/>
<path fill="#FFFFFF" opacity="1.000000" stroke="none" 
	d="
M195.001404,189.000000 
	C217.987198,189.000000 240.473343,188.998749 262.959503,189.000778 
	C269.656464,189.001389 272.956146,191.606812 272.999878,196.914993 
	C273.042328,202.066254 268.999603,205.900345 263.045624,205.968079 
	C252.886520,206.083679 242.725159,206.000000 232.564743,206.000000 
	C215.908325,206.000000 199.251862,206.024673 182.595535,205.986557 
	C176.798233,205.973297 173.903122,203.893356 172.422241,198.940720 
	C171.019699,194.249969 174.525070,189.200485 179.512161,189.036453 
	C184.503693,188.872284 189.504837,189.000137 195.001404,189.000000 
z"/>
<path fill="#FFFFFF" opacity="1.000000" stroke="none" 
	d="
M250.917297,249.545578 
	C233.508545,249.910599 216.387207,249.967056 199.265808,249.993698 
	C193.172348,250.003174 190.102463,247.265350 190.000015,241.836121 
	C189.890015,236.005157 192.768417,233.076385 199.104919,233.028381 
	C211.739685,232.932663 224.375687,233.000015 237.011169,233.000000 
	C239.505020,233.000000 242.021011,233.211502 244.487839,232.953323 
	C248.811844,232.500763 253.107880,233.605530 254.565094,237.424911 
	C256.100250,241.448547 255.931534,246.329483 250.917297,249.545578 
z"/>
</svg>