<svg version="1.1" id="Layer_1" xmlns="http://www.w3.org/2000/svg" xmlns:xlink="http://www.w3.org/1999/xlink" x="0px" y="0px"
	 width="100%" viewBox="0 0 2000 2000" enable-background="new 0 0 2000 2000" xml:space="preserve">
<path fill="#000000" opacity="1.000000" stroke="none" 
	d="
M965.000000,2001.000000 
	C643.333313,2001.000000 322.166656,2001.000000 1.000000,2001.000000 
	C1.000000,1334.333374 1.000000,667.666687 1.000000,1.000000 
	C667.666687,1.000000 1334.333374,1.000000 2001.000000,1.000000 
	C2001.000000,667.666687 2001.000000,1334.333374 2001.000000,2001.000000 
	C1655.833374,2001.000000 1310.666626,2001.000000 965.000000,2001.000000 
M888.505737,1404.828369 
	C867.382568,1404.828369 846.259399,1404.828369 825.073914,1404.828369 
	C818.998474,1363.708252 812.990417,1322.899414 806.932556,1282.097900 
	C803.389648,1258.235474 799.902710,1234.363037 796.110168,1210.539917 
	C794.710327,1201.746948 787.125793,1196.502686 778.811462,1197.768433 
	C770.109924,1199.093262 764.640625,1206.307007 765.684509,1215.337036 
	C766.390991,1221.448364 767.294922,1227.538818 768.202087,1233.624878 
	C776.737366,1290.884155 785.325073,1348.135742 793.824280,1405.400391 
	C796.884644,1426.020630 807.675720,1435.515503 828.417297,1435.515747 
	C911.411743,1435.516724 994.406189,1435.516235 1077.400635,1435.516235 
	C1109.731812,1435.516235 1142.063110,1435.564941 1174.394165,1435.496094 
	C1190.953369,1435.460815 1203.637695,1425.229858 1205.949707,1409.997803 
	C1213.962280,1357.208252 1221.889526,1304.406006 1229.840454,1251.607056 
	C1239.153809,1189.760498 1248.464844,1127.913452 1257.764282,1066.064819 
	C1268.153198,996.969421 1278.569092,927.877991 1288.828003,858.763367 
	C1289.618530,853.437866 1290.810669,847.421814 1289.192749,842.608521 
	C1276.816162,805.788696 1263.921021,769.139893 1250.758545,732.592346 
	C1249.441895,728.936340 1245.791626,725.392700 1242.306519,723.412659 
	C1236.805542,720.287415 1230.865479,721.567932 1226.094482,725.783447 
	C1220.821533,730.442444 1219.474365,736.426819 1221.813599,743.041748 
	C1229.007568,763.385315 1236.304688,783.692383 1243.545654,804.019287 
	C1246.815063,813.197266 1250.046753,822.388672 1253.394653,831.854614 
	C1228.012451,831.854614 1203.216797,831.854614 1178.229614,831.854614 
	C1149.373291,753.907776 1120.539673,676.022583 1091.703247,598.129639 
	C1092.644043,597.783325 1092.949829,597.573364 1093.256958,597.571594 
	C1117.742554,597.429260 1142.228394,597.251221 1166.713623,597.311951 
	C1168.102539,597.315369 1170.195557,599.002441 1170.752075,600.390564 
	C1173.406616,607.010742 1175.628662,613.803650 1178.030640,620.525818 
	C1185.348022,641.003540 1192.649048,661.487183 1200.015869,681.947083 
	C1203.063599,690.411743 1209.974365,694.887329 1217.506592,693.466064 
	C1227.797974,691.524170 1232.932251,682.239746 1229.239380,671.797424 
	C1219.553589,644.410522 1209.758057,617.062500 1199.991211,589.704285 
	C1194.290405,573.735718 1184.186157,566.505920 1167.302246,566.502563 
	C1056.809570,566.480713 946.316956,566.483032 835.824341,566.500244 
	C819.082458,566.502869 808.892944,573.510010 803.253906,589.153809 
	C773.483215,671.742615 743.685059,754.321960 714.251892,837.031067 
	C712.119080,843.024414 711.515625,850.204956 712.401306,856.525269 
	C718.217529,898.034729 724.686829,939.452332 730.850830,980.913574 
	C739.315430,1037.849854 747.687439,1094.799927 756.131775,1151.739258 
	C757.050354,1157.933228 760.180664,1162.664185 766.189880,1164.953735 
	C778.286194,1169.562622 788.890930,1159.480835 786.783447,1145.570557 
	C781.201782,1108.729858 775.642029,1071.885498 770.139587,1035.032837 
	C761.468689,976.958557 752.820435,918.880859 744.262207,860.789917 
	C743.430237,855.142944 742.333923,849.707275 744.506836,843.683655 
	C773.567505,763.123962 802.349915,682.463806 831.064453,601.779846 
	C832.318604,598.255920 834.073059,597.441528 837.535583,597.445984 
	C909.530701,597.539062 981.526001,597.549072 1053.520996,597.424194 
	C1057.342896,597.417603 1058.850220,598.646057 1060.153320,602.178223 
	C1090.028931,683.162048 1120.069824,764.084839 1149.971436,845.059021 
	C1150.902466,847.580139 1151.139648,850.570190 1150.894165,853.268311 
	C1150.397827,858.725037 1149.335571,864.129578 1148.527222,869.558716 
	C1142.696289,908.720459 1136.866943,947.882507 1131.044434,987.045471 
	C1125.516235,1024.229492 1119.994263,1061.414551 1114.474243,1098.599854 
	C1110.981445,1122.129761 1107.349854,1145.640625 1104.077515,1169.201294 
	C1102.654907,1179.444702 1108.339111,1187.049561 1117.334473,1188.033813 
	C1126.415527,1189.027466 1133.444092,1182.973267 1134.919312,1172.912720 
	C1136.246338,1163.862305 1137.598633,1154.815430 1138.936646,1145.766724 
	C1144.752686,1106.436768 1150.556274,1067.104980 1156.385620,1027.777100 
	C1163.263184,981.376953 1170.154663,934.978943 1177.059570,888.582886 
	C1178.322510,880.096375 1179.677368,871.623596 1180.927734,863.545715 
	C1206.578491,863.545715 1231.495361,863.545715 1256.754150,863.545715 
	C1229.780273,1044.054565 1202.868164,1224.149902 1175.954834,1404.252808 
	C1150.739502,1404.252808 1125.990479,1404.252808 1101.048706,1404.252808 
	C1101.048706,1402.894775 1100.907715,1401.752930 1101.069336,1400.655640 
	C1105.191650,1372.676392 1109.364624,1344.704590 1113.488647,1316.725708 
	C1117.417480,1290.072144 1121.405518,1263.426758 1125.145752,1236.746704 
	C1126.396362,1227.826050 1120.728027,1220.719849 1111.944336,1219.269653 
	C1104.232666,1217.996460 1096.477051,1223.526733 1094.868286,1231.880127 
	C1093.548584,1238.732544 1092.732422,1245.682373 1091.707520,1252.591064 
	C1085.436279,1294.864014 1079.177124,1337.138916 1072.894531,1379.410278 
	C1071.655640,1387.746216 1070.332642,1396.069702 1068.982300,1404.828369 
	C1008.781677,1404.828369 949.142700,1404.828369 888.505737,1404.828369 
M837.499756,828.522034 
	C915.820801,828.522034 994.141846,828.523071 1072.462891,828.515686 
	C1074.292480,828.515503 1076.141479,828.572754 1077.948486,828.343384 
	C1085.857544,827.339478 1091.357300,820.892090 1091.262207,812.862610 
	C1091.169189,805.014526 1085.753418,798.849976 1077.970093,797.877686 
	C1075.665649,797.589844 1073.323242,797.501282 1070.998169,797.500793 
	C988.177856,797.482422 905.357605,797.483459 822.537292,797.497620 
	C820.543884,797.497925 818.539856,797.579773 816.558838,797.792053 
	C807.768616,798.734070 801.760925,805.442383 802.126465,813.828674 
	C802.491516,822.204346 809.047119,828.335327 818.003113,828.499817 
	C824.166687,828.613098 830.334045,828.521790 837.499756,828.522034 
M873.551758,913.522095 
	C923.709656,913.522095 973.867493,913.527649 1024.025391,913.502991 
	C1026.178223,913.501892 1028.382935,913.467407 1030.474121,913.025879 
	C1037.487793,911.545105 1042.314697,905.092468 1042.175293,897.668396 
	C1042.042480,890.595398 1036.972290,884.264404 1030.181519,883.034912 
	C1027.581055,882.564087 1024.879639,882.508301 1022.223999,882.506775 
	C971.899475,882.477844 921.574951,882.481140 871.250427,882.500061 
	C869.091309,882.500916 866.917297,882.593018 864.776001,882.854126 
	C857.020996,883.800232 851.084961,890.554749 851.164551,898.228149 
	C851.242493,905.742981 857.045776,912.360840 864.593323,913.292419 
	C867.223267,913.617065 869.912720,913.459412 873.551758,913.522095 
M908.535034,998.521851 
	C926.015442,998.521851 943.495911,998.522156 960.976318,998.521729 
	C971.797546,998.521484 982.622864,998.706604 993.438904,998.469543 
	C1005.533813,998.204468 1012.721558,986.289062 1007.254517,975.914490 
	C1003.675964,969.123596 997.562500,967.448181 990.469177,967.461975 
	C961.335266,967.518555 932.201111,967.481323 903.067078,967.498352 
	C901.575378,967.499207 900.073364,967.602661 898.593811,967.794189 
	C889.968750,968.910461 884.546875,975.240051 884.825073,983.813049 
	C885.084412,991.806335 891.238220,997.990723 899.561646,998.489807 
	C902.215942,998.648926 904.887512,998.519287 908.535034,998.521851 
z"/>
<path fill="#FCFCFC" opacity="1.000000" stroke="none" 
	d="
M889.004761,1404.828369 
	C949.142700,1404.828369 1008.781677,1404.828369 1068.982300,1404.828369 
	C1070.332642,1396.069702 1071.655640,1387.746216 1072.894531,1379.410278 
	C1079.177124,1337.138916 1085.436279,1294.864014 1091.707520,1252.591064 
	C1092.732422,1245.682373 1093.548584,1238.732544 1094.868286,1231.880127 
	C1096.477051,1223.526733 1104.232666,1217.996460 1111.944336,1219.269653 
	C1120.728027,1220.719849 1126.396362,1227.826050 1125.145752,1236.746704 
	C1121.405518,1263.426758 1117.417480,1290.072144 1113.488647,1316.725708 
	C1109.364624,1344.704590 1105.191650,1372.676392 1101.069336,1400.655640 
	C1100.907715,1401.752930 1101.048706,1402.894775 1101.048706,1404.252808 
	C1125.990479,1404.252808 1150.739502,1404.252808 1175.954834,1404.252808 
	C1202.868164,1224.149902 1229.780273,1044.054565 1256.754150,863.545715 
	C1231.495361,863.545715 1206.578491,863.545715 1180.927734,863.545715 
	C1179.677368,871.623596 1178.322510,880.096375 1177.059570,888.582886 
	C1170.154663,934.978943 1163.263184,981.376953 1156.385620,1027.777100 
	C1150.556274,1067.104980 1144.752686,1106.436768 1138.936646,1145.766724 
	C1137.598633,1154.815430 1136.246338,1163.862305 1134.919312,1172.912720 
	C1133.444092,1182.973267 1126.415527,1189.027466 1117.334473,1188.033813 
	C1108.339111,1187.049561 1102.654907,1179.444702 1104.077515,1169.201294 
	C1107.349854,1145.640625 1110.981445,1122.129761 1114.474243,1098.599854 
	C1119.994263,1061.414551 1125.516235,1024.229492 1131.044434,987.045471 
	C1136.866943,947.882507 1142.696289,908.720459 1148.527222,869.558716 
	C1149.335571,864.129578 1150.397827,858.725037 1150.894165,853.268311 
	C1151.139648,850.570190 1150.902466,847.580139 1149.971436,845.059021 
	C1120.069824,764.084839 1090.028931,683.162048 1060.153320,602.178223 
	C1058.850220,598.646057 1057.342896,597.417603 1053.520996,597.424194 
	C981.526001,597.549072 909.530701,597.539062 837.535583,597.445984 
	C834.073059,597.441528 832.318604,598.255920 831.064453,601.779846 
	C802.349915,682.463806 773.567505,763.123962 744.506836,843.683655 
	C742.333923,849.707275 743.430237,855.142944 744.262207,860.789917 
	C752.820435,918.880859 761.468689,976.958557 770.139587,1035.032837 
	C775.642029,1071.885498 781.201782,1108.729858 786.783447,1145.570557 
	C788.890930,1159.480835 778.286194,1169.562622 766.189880,1164.953735 
	C760.180664,1162.664185 757.050354,1157.933228 756.131775,1151.739258 
	C747.687439,1094.799927 739.315430,1037.849854 730.850830,980.913574 
	C724.686829,939.452332 718.217529,898.034729 712.401306,856.525269 
	C711.515625,850.204956 712.119080,843.024414 714.251892,837.031067 
	C743.685059,754.321960 773.483215,671.742615 803.253906,589.153809 
	C808.892944,573.510010 819.082458,566.502869 835.824341,566.500244 
	C946.316956,566.483032 1056.809570,566.480713 1167.302246,566.502563 
	C1184.186157,566.505920 1194.290405,573.735718 1199.991211,589.704285 
	C1209.758057,617.062500 1219.553589,644.410522 1229.239380,671.797424 
	C1232.932251,682.239746 1227.797974,691.524170 1217.506592,693.466064 
	C1209.974365,694.887329 1203.063599,690.411743 1200.015869,681.947083 
	C1192.649048,661.487183 1185.348022,641.003540 1178.030640,620.525818 
	C1175.628662,613.803650 1173.406616,607.010742 1170.752075,600.390564 
	C1170.195557,599.002441 1168.102539,597.315369 1166.713623,597.311951 
	C1142.228394,597.251221 1117.742554,597.429260 1093.256958,597.571594 
	C1092.949829,597.573364 1092.644043,597.783325 1091.703247,598.129639 
	C1120.539673,676.022583 1149.373291,753.907776 1178.229614,831.854614 
	C1203.216797,831.854614 1228.012451,831.854614 1253.394653,831.854614 
	C1250.046753,822.388672 1246.815063,813.197266 1243.545654,804.019287 
	C1236.304688,783.692383 1229.007568,763.385315 1221.813599,743.041748 
	C1219.474365,736.426819 1220.821533,730.442444 1226.094482,725.783447 
	C1230.865479,721.567932 1236.805542,720.287415 1242.306519,723.412659 
	C1245.791626,725.392700 1249.441895,728.936340 1250.758545,732.592346 
	C1263.921021,769.139893 1276.816162,805.788696 1289.192749,842.608521 
	C1290.810669,847.421814 1289.618530,853.437866 1288.828003,858.763367 
	C1278.569092,927.877991 1268.153198,996.969421 1257.764282,1066.064819 
	C1248.464844,1127.913452 1239.153809,1189.760498 1229.840454,1251.607056 
	C1221.889526,1304.406006 1213.962280,1357.208252 1205.949707,1409.997803 
	C1203.637695,1425.229858 1190.953369,1435.460815 1174.394165,1435.496094 
	C1142.063110,1435.564941 1109.731812,1435.516235 1077.400635,1435.516235 
	C994.406189,1435.516235 911.411743,1435.516724 828.417297,1435.515747 
	C807.675720,1435.515503 796.884644,1426.020630 793.824280,1405.400391 
	C785.325073,1348.135742 776.737366,1290.884155 768.202087,1233.624878 
	C767.294922,1227.538818 766.390991,1221.448364 765.684509,1215.337036 
	C764.640625,1206.307007 770.109924,1199.093262 778.811462,1197.768433 
	C787.125793,1196.502686 794.710327,1201.746948 796.110168,1210.539917 
	C799.902710,1234.363037 803.389648,1258.235474 806.932556,1282.097900 
	C812.990417,1322.899414 818.998474,1363.708252 825.073914,1404.828369 
	C846.259399,1404.828369 867.382568,1404.828369 889.004761,1404.828369 
z"/>
<path fill="#FBFBFB" opacity="1.000000" stroke="none" 
	d="
M836.999756,828.521973 
	C830.334045,828.521790 824.166687,828.613098 818.003113,828.499817 
	C809.047119,828.335327 802.491516,822.204346 802.126465,813.828674 
	C801.760925,805.442383 807.768616,798.734070 816.558838,797.792053 
	C818.539856,797.579773 820.543884,797.497925 822.537292,797.497620 
	C905.357605,797.483459 988.177856,797.482422 1070.998169,797.500793 
	C1073.323242,797.501282 1075.665649,797.589844 1077.970093,797.877686 
	C1085.753418,798.849976 1091.169189,805.014526 1091.262207,812.862610 
	C1091.357300,820.892090 1085.857544,827.339478 1077.948486,828.343384 
	C1076.141479,828.572754 1074.292480,828.515503 1072.462891,828.515686 
	C994.141846,828.523071 915.820801,828.522034 836.999756,828.521973 
z"/>
<path fill="#FBFBFB" opacity="1.000000" stroke="none" 
	d="
M873.063354,913.522095 
	C869.912720,913.459412 867.223267,913.617065 864.593323,913.292419 
	C857.045776,912.360840 851.242493,905.742981 851.164551,898.228149 
	C851.084961,890.554749 857.020996,883.800232 864.776001,882.854126 
	C866.917297,882.593018 869.091309,882.500916 871.250427,882.500061 
	C921.574951,882.481140 971.899475,882.477844 1022.223999,882.506775 
	C1024.879639,882.508301 1027.581055,882.564087 1030.181519,883.034912 
	C1036.972290,884.264404 1042.042480,890.595398 1042.175293,897.668396 
	C1042.314697,905.092468 1037.487793,911.545105 1030.474121,913.025879 
	C1028.382935,913.467407 1026.178223,913.501892 1024.025391,913.502991 
	C973.867493,913.527649 923.709656,913.522095 873.063354,913.522095 
z"/>
<path fill="#FBFBFB" opacity="1.000000" stroke="none" 
	d="
M908.043091,998.521851 
	C904.887512,998.519287 902.215942,998.648926 899.561646,998.489807 
	C891.238220,997.990723 885.084412,991.806335 884.825073,983.813049 
	C884.546875,975.240051 889.968750,968.910461 898.593811,967.794189 
	C900.073364,967.602661 901.575378,967.499207 903.067078,967.498352 
	C932.201111,967.481323 961.335266,967.518555 990.469177,967.461975 
	C997.562500,967.448181 1003.675964,969.123596 1007.254517,975.914490 
	C1012.721558,986.289062 1005.533813,998.204468 993.438904,998.469543 
	C982.622864,998.706604 971.797546,998.521484 960.976318,998.521729 
	C943.495911,998.522156 926.015442,998.521851 908.043091,998.521851 
z"/>
</svg>