<svg version="1.1" id="Layer_1" xmlns="http://www.w3.org/2000/svg" xmlns:xlink="http://www.w3.org/1999/xlink" x="0px" y="0px"
	 width="100%" viewBox="0 0 500 500" enable-background="new 0 0 500 500" xml:space="preserve">
<path fill="#010101" opacity="1.000000" stroke="none" 
	d="
M501.000000,186.000000 
	C501.000000,291.333313 501.000000,396.166626 501.000000,500.999939 
	C334.333405,500.999969 167.666794,500.999969 1.000146,501.000000 
	C1.000097,334.333435 1.000097,167.666870 1.000049,1.000235 
	C167.666519,1.000157 334.333038,1.000157 500.999786,1.000078 
	C501.000000,62.500000 501.000000,124.000000 501.000000,186.000000 
M288.499939,478.175751 
	C305.999908,478.175659 323.500061,478.228760 340.999725,478.154846 
	C350.980896,478.112732 356.724396,473.519043 358.226166,463.752075 
	C365.229431,418.205353 372.062866,372.632477 378.942566,327.066772 
	C385.549316,283.308624 391.984283,239.523758 398.794586,195.797348 
	C402.679291,170.855103 402.950134,170.896820 394.522217,146.918976 
	C390.337860,135.014328 386.221436,123.085068 381.928986,111.219490 
	C380.096558,106.154236 375.682678,103.942078 371.352173,105.525612 
	C366.836273,107.176941 365.025726,111.361717 366.670013,116.526886 
	C367.526917,119.218506 368.490295,121.876945 369.438354,124.538704 
	C373.935913,137.165588 378.444763,149.788467 383.097656,162.827744 
	C371.236938,162.827744 359.945129,162.636246 348.666168,162.933502 
	C344.813965,163.035004 343.244263,161.653885 341.981567,158.202957 
	C331.144318,128.584747 320.116516,99.036316 309.168976,69.458382 
	C305.611481,59.846691 302.123352,50.209328 298.333099,39.844208 
	C310.975281,39.844208 322.917053,40.017258 334.848236,39.737652 
	C338.379333,39.654900 339.763489,40.904835 340.839020,44.020687 
	C345.386169,57.193840 349.985168,70.356468 355.008087,83.351753 
	C356.011108,85.946815 358.599854,88.761879 361.113342,89.680191 
	C363.173523,90.432884 367.349945,89.304008 368.533112,87.590302 
	C370.135773,85.268974 370.920898,81.223381 370.063843,78.558342 
	C365.644806,64.817413 360.596985,51.278419 355.752502,37.674686 
	C351.905792,26.872688 347.589355,23.831118 336.087433,23.830080 
	C279.423187,23.824970 222.758957,23.824566 166.094711,23.830549 
	C155.238770,23.831696 150.687332,27.016758 147.059250,37.091972 
	C133.508347,74.723038 120.310555,112.487015 106.219887,149.914856 
	C101.270042,163.062698 98.269623,175.834244 102.023567,189.639587 
	C102.501457,191.397049 102.670776,193.241516 102.940521,195.052017 
	C109.609024,239.809769 116.260849,284.570007 122.949448,329.324738 
	C123.784271,334.910706 127.010773,337.607422 131.988480,337.142181 
	C136.663452,336.705231 139.542435,332.906250 138.972702,327.489929 
	C138.503159,323.026062 137.691513,318.598114 137.028885,314.154633 
	C130.796417,272.360748 124.693817,230.546814 118.241440,188.786911 
	C116.569221,177.964310 116.446884,167.898041 120.760666,157.287369 
	C128.694946,137.771255 135.135056,117.648949 142.246826,97.796814 
	C149.128662,78.586533 156.072083,59.398304 162.967484,40.258579 
	C202.453033,40.258579 241.704361,40.258579 280.986084,40.258579 
	C281.427277,41.389423 281.800629,42.306770 282.145020,43.234867 
	C296.409821,81.677963 310.489014,120.191658 325.074219,158.512787 
	C328.364471,167.157623 330.357086,175.468399 327.913757,184.533340 
	C327.440369,186.289627 327.285095,188.133972 327.015717,189.942566 
	C321.819763,224.828156 316.620697,259.713287 311.440430,294.601196 
	C309.241333,309.411804 306.963287,324.212402 304.970642,339.051025 
	C304.239594,344.494934 307.187958,348.242645 311.869720,348.885345 
	C316.337494,349.498688 320.155243,346.220673 320.983490,340.985229 
	C321.503235,337.699829 321.909241,334.396667 322.399567,331.106415 
	C327.597687,296.224762 332.803162,261.344208 338.005127,226.463165 
	C340.353638,210.715439 342.698669,194.967209 345.032379,179.305969 
	C358.496307,179.305969 371.540985,179.305969 384.713531,179.305969 
	C370.609741,273.682465 356.552673,367.746185 342.507385,461.731262 
	C329.081604,461.731262 316.163208,461.731262 303.105865,461.731262 
	C304.256378,453.886749 305.350433,446.316956 306.479187,438.752319 
	C309.598267,417.848969 312.762299,396.952271 315.840027,376.042847 
	C316.712677,370.113983 313.962494,365.856415 309.048004,365.111053 
	C304.467285,364.416290 300.743408,367.704132 299.839691,373.428436 
	C298.490143,381.976166 297.230652,390.538177 295.955627,399.097504 
	C292.848480,419.956207 289.754486,440.816895 286.623962,461.886932 
	C243.931396,461.886932 201.514099,461.886932 159.111954,461.886932 
	C158.750656,459.985840 158.382004,458.358795 158.137512,456.713318 
	C153.467026,425.280090 148.825012,393.842621 144.140442,362.411499 
	C143.217621,356.219757 139.742905,353.188873 134.676270,353.944336 
	C129.713196,354.684418 127.187187,358.645508 128.107788,364.896393 
	C132.859512,397.160309 137.606140,429.425598 142.551559,461.660156 
	C144.467850,474.150665 149.474121,478.170135 162.005249,478.172607 
	C203.836792,478.180847 245.668335,478.175751 288.499939,478.175751 
M156.863571,160.845367 
	C200.149521,160.845383 243.435486,160.845825 286.721436,160.843506 
	C288.219177,160.843430 289.766418,161.054291 291.205292,160.755768 
	C295.392731,159.886963 298.077301,157.448029 298.146332,152.928558 
	C298.214417,148.465958 295.893158,145.723511 291.550446,144.896255 
	C289.608826,144.526367 287.581024,144.503525 285.592224,144.502548 
	C243.638107,144.481918 201.683990,144.486847 159.729874,144.487427 
	C158.564499,144.487442 157.394135,144.425873 156.234619,144.510239 
	C150.541656,144.924438 147.182632,147.795609 147.002731,152.348053 
	C146.811722,157.180817 149.972229,160.178589 156.863571,160.845367 
M218.500000,188.998917 
	C206.189102,189.001587 193.877243,188.915955 181.567719,189.047287 
	C176.093033,189.105682 172.861420,192.337784 172.834213,197.199448 
	C172.806656,202.121567 175.995987,205.096573 181.592026,205.150482 
	C189.077713,205.222580 196.564606,205.168945 204.050980,205.168976 
	C223.848282,205.169037 243.645645,205.199615 263.442841,205.151337 
	C269.941376,205.135483 273.807343,200.578827 272.141937,194.963913 
	C270.796204,190.426743 267.340759,188.976517 262.920929,188.986633 
	C248.447357,189.019745 233.973648,188.998962 218.500000,188.998917 
M199.102539,233.465454 
	C192.944382,234.394867 189.886688,237.321152 190.142944,242.039978 
	C190.372070,246.259399 193.667526,249.730728 198.408936,249.778214 
	C214.715500,249.941513 231.026367,249.956436 247.332047,249.749451 
	C252.039169,249.689713 255.148422,246.021896 255.173203,241.675491 
	C255.198242,237.283203 252.168274,234.069687 247.409149,233.544830 
	C246.092331,233.399597 244.750351,233.463852 243.419922,233.463455 
	C228.941772,233.459076 214.463623,233.460938 199.102539,233.465454 
z"/>
<path fill="#FBFBFB" opacity="1.000000" stroke="none" 
	d="
M287.999908,478.175751 
	C245.668335,478.175751 203.836792,478.180847 162.005249,478.172607 
	C149.474121,478.170135 144.467850,474.150665 142.551559,461.660156 
	C137.606140,429.425598 132.859512,397.160309 128.107788,364.896393 
	C127.187187,358.645508 129.713196,354.684418 134.676270,353.944336 
	C139.742905,353.188873 143.217621,356.219757 144.140442,362.411499 
	C148.825012,393.842621 153.467026,425.280090 158.137512,456.713318 
	C158.382004,458.358795 158.750656,459.985840 159.111954,461.886932 
	C201.514099,461.886932 243.931396,461.886932 286.623962,461.886932 
	C289.754486,440.816895 292.848480,419.956207 295.955627,399.097504 
	C297.230652,390.538177 298.490143,381.976166 299.839691,373.428436 
	C300.743408,367.704132 304.467285,364.416290 309.048004,365.111053 
	C313.962494,365.856415 316.712677,370.113983 315.840027,376.042847 
	C312.762299,396.952271 309.598267,417.848969 306.479187,438.752319 
	C305.350433,446.316956 304.256378,453.886749 303.105865,461.731262 
	C316.163208,461.731262 329.081604,461.731262 342.507385,461.731262 
	C356.552673,367.746185 370.609741,273.682465 384.713531,179.305969 
	C371.540985,179.305969 358.496307,179.305969 345.032379,179.305969 
	C342.698669,194.967209 340.353638,210.715439 338.005127,226.463165 
	C332.803162,261.344208 327.597687,296.224762 322.399567,331.106415 
	C321.909241,334.396667 321.503235,337.699829 320.983490,340.985229 
	C320.155243,346.220673 316.337494,349.498688 311.869720,348.885345 
	C307.187958,348.242645 304.239594,344.494934 304.970642,339.051025 
	C306.963287,324.212402 309.241333,309.411804 311.440430,294.601196 
	C316.620697,259.713287 321.819763,224.828156 327.015717,189.942566 
	C327.285095,188.133972 327.440369,186.289627 327.913757,184.533340 
	C330.357086,175.468399 328.364471,167.157623 325.074219,158.512787 
	C310.489014,120.191658 296.409821,81.677963 282.145020,43.234867 
	C281.800629,42.306770 281.427277,41.389423 280.986084,40.258579 
	C241.704361,40.258579 202.453033,40.258579 162.967484,40.258579 
	C156.072083,59.398304 149.128662,78.586533 142.246826,97.796814 
	C135.135056,117.648949 128.694946,137.771255 120.760666,157.287369 
	C116.446884,167.898041 116.569221,177.964310 118.241440,188.786911 
	C124.693817,230.546814 130.796417,272.360748 137.028885,314.154633 
	C137.691513,318.598114 138.503159,323.026062 138.972702,327.489929 
	C139.542435,332.906250 136.663452,336.705231 131.988480,337.142181 
	C127.010773,337.607422 123.784271,334.910706 122.949448,329.324738 
	C116.260849,284.570007 109.609024,239.809769 102.940521,195.052017 
	C102.670776,193.241516 102.501457,191.397049 102.023567,189.639587 
	C98.269623,175.834244 101.270042,163.062698 106.219887,149.914856 
	C120.310555,112.487015 133.508347,74.723038 147.059250,37.091972 
	C150.687332,27.016758 155.238770,23.831696 166.094711,23.830549 
	C222.758957,23.824566 279.423187,23.824970 336.087433,23.830080 
	C347.589355,23.831118 351.905792,26.872688 355.752502,37.674686 
	C360.596985,51.278419 365.644806,64.817413 370.063843,78.558342 
	C370.920898,81.223381 370.135773,85.268974 368.533112,87.590302 
	C367.349945,89.304008 363.173523,90.432884 361.113342,89.680191 
	C358.599854,88.761879 356.011108,85.946815 355.008087,83.351753 
	C349.985168,70.356468 345.386169,57.193840 340.839020,44.020687 
	C339.763489,40.904835 338.379333,39.654900 334.848236,39.737652 
	C322.917053,40.017258 310.975281,39.844208 298.333099,39.844208 
	C302.123352,50.209328 305.611481,59.846691 309.168976,69.458382 
	C320.116516,99.036316 331.144318,128.584747 341.981567,158.202957 
	C343.244263,161.653885 344.813965,163.035004 348.666168,162.933502 
	C359.945129,162.636246 371.236938,162.827744 383.097656,162.827744 
	C378.444763,149.788467 373.935913,137.165588 369.438354,124.538704 
	C368.490295,121.876945 367.526917,119.218506 366.670013,116.526886 
	C365.025726,111.361717 366.836273,107.176941 371.352173,105.525612 
	C375.682678,103.942078 380.096558,106.154236 381.928986,111.219490 
	C386.221436,123.085068 390.337860,135.014328 394.522217,146.918976 
	C402.950134,170.896820 402.679291,170.855103 398.794586,195.797348 
	C391.984283,239.523758 385.549316,283.308624 378.942566,327.066772 
	C372.062866,372.632477 365.229431,418.205353 358.226166,463.752075 
	C356.724396,473.519043 350.980896,478.112732 340.999725,478.154846 
	C323.500061,478.228760 305.999908,478.175659 287.999908,478.175751 
z"/>
<path fill="#FBFBFB" opacity="1.000000" stroke="none" 
	d="
M156.412369,160.845306 
	C149.972229,160.178589 146.811722,157.180817 147.002731,152.348053 
	C147.182632,147.795609 150.541656,144.924438 156.234619,144.510239 
	C157.394135,144.425873 158.564499,144.487442 159.729874,144.487427 
	C201.683990,144.486847 243.638107,144.481918 285.592224,144.502548 
	C287.581024,144.503525 289.608826,144.526367 291.550446,144.896255 
	C295.893158,145.723511 298.214417,148.465958 298.146332,152.928558 
	C298.077301,157.448029 295.392731,159.886963 291.205292,160.755768 
	C289.766418,161.054291 288.219177,160.843430 286.721436,160.843506 
	C243.435486,160.845825 200.149521,160.845383 156.412369,160.845306 
z"/>
<path fill="#FEFEFE" opacity="1.000000" stroke="none" 
	d="
M219.000000,188.998917 
	C233.973648,188.998962 248.447357,189.019745 262.920929,188.986633 
	C267.340759,188.976517 270.796204,190.426743 272.141937,194.963913 
	C273.807343,200.578827 269.941376,205.135483 263.442841,205.151337 
	C243.645645,205.199615 223.848282,205.169037 204.050980,205.168976 
	C196.564606,205.168945 189.077713,205.222580 181.592026,205.150482 
	C175.995987,205.096573 172.806656,202.121567 172.834213,197.199448 
	C172.861420,192.337784 176.093033,189.105682 181.567719,189.047287 
	C193.877243,188.915955 206.189102,189.001587 219.000000,188.998917 
z"/>
<path fill="#F4F4F4" opacity="1.000000" stroke="none" 
	d="
M199.544006,233.463287 
	C214.463623,233.460938 228.941772,233.459076 243.419922,233.463455 
	C244.750351,233.463852 246.092331,233.399597 247.409149,233.544830 
	C252.168274,234.069687 255.198242,237.283203 255.173203,241.675491 
	C255.148422,246.021896 252.039169,249.689713 247.332047,249.749451 
	C231.026367,249.956436 214.715500,249.941513 198.408936,249.778214 
	C193.667526,249.730728 190.372070,246.259399 190.142944,242.039978 
	C189.886688,237.321152 192.944382,234.394867 199.544006,233.463287 
z"/>
</svg>